<?xml version="1.0" encoding="UTF-8"?>
<svg xmlns="http://www.w3.org/2000/svg" version="1.1" viewBox="0 0 32 32" width="32" height="32">
  <defs>
    <style>
      .cls-1 {
        display: none;
      }

      .cls-1, .cls-2 {
        fill-rule: evenodd;
      }

      .cls-3, .cls-4, .cls-5 {
        fill: none;
        stroke-width: 1.5px;
      }

      .cls-3, .cls-5, .cls-2 {
        stroke: #000;
      }

      .cls-3, .cls-2 {
        stroke-miterlimit: 10;
      }

      .cls-4 {
        stroke: #040000;
      }

      .cls-4, .cls-5 {
        stroke-linecap: round;
        stroke-linejoin: round;
      }

      .cls-2 {
        stroke-width: .2px;
      }
    </style>
  </defs>
  <!-- Generator: Adobe Illustrator 28.7.6, SVG Export Plug-In . SVG Version: 1.2.0 Build 188)  -->
  <g>
    <g id="_레이어_1" data-name="레이어_1">
      <path class="cls-1" d="M10.5,5c-2,0-3.6,1.6-3.7,3.5l-.7,12.9c-.1,2.1,1.6,4,3.7,4h12.6c2.2,0,3.9-1.8,3.7-4l-.7-12.9c-.1-2-1.8-3.5-3.7-3.5h-11.2ZM8.2,8.6c0-1.2,1.1-2.1,2.2-2.1h11.2c1.2,0,2.2.9,2.2,2.1l.7,12.9c0,1.3-1,2.4-2.2,2.4h-12.6c-1.3,0-2.3-1.1-2.2-2.4l.7-12.9ZM16,12.4c-1.3,0-2.4-1.1-2.4-2.4h-1.5c0,2.2,1.7,3.9,3.9,3.9s3.9-1.7,3.9-3.9h-1.5c0,1.3-1.1,2.4-2.4,2.4Z"/>
      <g id="_레이어_1-2" data-name="_레이어_1">
        <g id="_레이어_1-2">
          <g id="_레이어_1-2-2" data-name="_레이어_1-2">
            <path class="cls-3" d="M26.3,23.4H8.2c-.7,0-1.3-.6-1.3-1.2l-.7-13c0-.8.7-1.6,1.6-1.6h18.9c.8,0,1.6.7,1.6,1.6l-.7,13c0,.7-.7,1.2-1.3,1.2h0Z"/>
            <path class="cls-2" d="M22.5,30.8c-1.5,0-2.8-1.2-2.8-2.8s1.2-2.8,2.8-2.8,2.8,1.2,2.8,2.8-1.2,2.8-2.8,2.8ZM22.5,29.7c-.9,0-1.7-.7-1.7-1.7s.7-1.7,1.7-1.7,1.7.7,1.7,1.7-.7,1.7-1.7,1.7Z"/>
            <path class="cls-2" d="M11.4,30.8c-1.5,0-2.8-1.2-2.8-2.8s1.2-2.8,2.8-2.8,2.8,1.2,2.8,2.8-1.2,2.8-2.8,2.8ZM11.4,29.7c-.9,0-1.7-.7-1.7-1.7s.7-1.7,1.7-1.7,1.7.7,1.7,1.7-.7,1.7-1.7,1.7Z"/>
            <g>
              <line class="cls-5" x1="17.4" y1="11.3" x2="17.4" y2="19.6"/>
              <line class="cls-5" x1="12.5" y1="11.3" x2="12.5" y2="19.6"/>
              <line class="cls-5" x1="22.2" y1="11.3" x2="22.2" y2="19.6"/>
            </g>
            <polyline class="cls-4" points="1.9 3 5.9 3 6.4 12.1"/>
          </g>
        </g>
      </g>
    </g>
  </g>
</svg>