<svg width="24" height="24" viewBox="0 0 24 24" fill="none" xmlns="http://www.w3.org/2000/svg">
<path fill-rule="evenodd" clip-rule="evenodd" d="M0 5C0 4.58579 0.335786 4.25 0.75 4.25H18.75C19.1642 4.25 19.5 4.58579 19.5 5C19.5 5.41421 19.1642 5.75 18.75 5.75H0.75C0.335786 5.75 0 5.41421 0 5ZM0 12C0 11.5858 0.335786 11.25 0.75 11.25H18.75C19.1642 11.25 19.5 11.5858 19.5 12C19.5 12.4142 19.1642 12.75 18.75 12.75H0.75C0.335786 12.75 0 12.4142 0 12ZM0.75 18.25C0.335786 18.25 0 18.5858 0 19C0 19.4142 0.335786 19.75 0.75 19.75H18.75C19.1642 19.75 19.5 19.4142 19.5 19C19.5 18.5858 19.1642 18.25 18.75 18.25H0.75Z" fill="black"/>
</svg>
