<svg width="32" height="32" viewBox="0 0 32 32" fill="none" xmlns="http://www.w3.org/2000/svg">
<circle cx="16.0478" cy="10.2632" r="4.51316" stroke="black" stroke-width="1.5"/>
<mask id="path-2-inside-1_2546_2504" fill="white">
<path fill-rule="evenodd" clip-rule="evenodd" d="M23.5242 26.2227C24.9444 26.2227 26.0957 25.0714 26.0957 23.6512C26.0957 19.7852 22.9617 16.6512 19.0957 16.6512L13 16.6512C9.13401 16.6512 6 19.7852 6 23.6512C6 25.0714 7.15128 26.2227 8.57145 26.2227L23.5242 26.2227Z"/>
</mask>
<path d="M19.0957 16.6512L19.0957 15.1512L19.0957 16.6512ZM13 16.6512L13 18.1512L13 16.6512ZM19.0957 18.1512C22.1333 18.1512 24.5957 20.6136 24.5957 23.6512L27.5957 23.6512C27.5957 18.9568 23.7901 15.1512 19.0957 15.1512L19.0957 18.1512ZM13 18.1512L19.0957 18.1512L19.0957 15.1512L13 15.1512L13 18.1512ZM7.5 23.6512C7.5 20.6136 9.96244 18.1512 13 18.1512L13 15.1512C8.30558 15.1512 4.5 18.9568 4.5 23.6512L7.5 23.6512ZM8.57145 27.7227L23.5242 27.7227L23.5242 24.7227L8.57145 24.7227L8.57145 27.7227ZM4.5 23.6512C4.5 25.8998 6.32285 27.7227 8.57145 27.7227L8.57145 24.7227C7.9797 24.7227 7.5 24.243 7.5 23.6512L4.5 23.6512ZM24.5957 23.6512C24.5957 24.243 24.116 24.7227 23.5242 24.7227L23.5242 27.7227C25.7728 27.7227 27.5957 25.8998 27.5957 23.6512L24.5957 23.6512Z" fill="black" mask="url(#path-2-inside-1_2546_2504)"/>
</svg>
